<svg xmlns="http://www.w3.org/2000/svg" width="1600" height="900" viewBox="0 0 1600 900" preserveAspectRatio="none"><!-- Derivado por tools/extract_texture.py. As formas são preenchidas com a cor do fundo e sem traço: só a sombra aparece. --><defs><filter id="s" x="-20%" y="-20%" width="140%" height="140%" color-interpolation-filters="sRGB"><feDropShadow dx="0" dy="3.33" stdDeviation="3.33" flood-color="#000" flood-opacity="0.72"/></filter></defs><g fill="#141415" filter="url(#s)"><path d="M1.85 457.93C0.95 460.80 -0.04 463.57 -0.04 466.42C-0.04 468.30 -0.04 470.18 0.95 472.04C1.85 472.96 1.85 474.82 1.85 475.81L1.85 457.93Z"/><path d="M280.58 -3.74C279.61 18.77 278.69 42.27 278.69 63.82C278.69 226.20 315.27 378.21 388.45 517.09C472.01 676.62 598.66 807.02 751.65 899.96L829.49 899.96C655.94 810.76 513.29 672.86 422.23 499.23C351.90 365.98 317.13 219.59 317.13 63.82C317.13 41.30 317.13 18.77 319.01 -3.74Z"/><path d="M53.50 -3.74C52.52 18.77 51.62 41.30 51.62 63.82C51.62 262.76 97.56 450.43 186.74 622.19C240.19 724.43 308.73 818.28 388.45 899.96L441.99 899.96C353.78 814.52 278.69 716.03 220.52 605.30C133.22 439.18 89.14 257.13 89.14 63.82C89.14 41.30 90.06 18.77 91.02 -3.74Z"/><path d="M205.51 -3.74C203.63 18.77 202.66 42.27 202.66 63.82C202.66 238.36 243.05 402.62 320.89 551.79C393.18 688.79 494.52 807.02 618.39 899.96L682.21 899.96C545.21 807.02 432.60 683.15 354.67 534.88C279.61 390.37 241.17 231.82 241.17 63.82C241.17 42.27 242.07 18.77 243.05 -3.74Z"/><path d="M129.46 -3.74C127.58 18.77 127.58 41.30 127.58 63.82C127.58 250.59 169.85 427.02 254.30 587.43C317.13 706.64 398.82 811.74 497.30 899.96L557.36 899.96C446.63 808.90 354.67 697.26 288.08 569.64C206.41 414.77 165.12 243.99 165.12 63.82C165.12 42.27 166.09 18.77 167.00 -3.74Z"/><path d="M1.85 761.97L1.85 832.40C17.84 855.81 33.74 878.34 49.74 899.96L97.56 899.96C63.78 856.79 30.97 809.86 1.85 761.97Z"/><path d="M1.85 584.65L1.85 673.76C5.42 676.76 10.13 678.61 15.01 678.61C17.82 678.61 20.72 677.99 23.46 676.62C32.85 671.90 36.59 660.63 31.86 651.25C21.58 629.70 11.23 607.18 1.85 584.65Z"/><path d="M77.00 754.38C73.53 754.38 69.96 755.31 66.63 757.31C61.00 760.09 57.24 766.70 57.24 773.24C57.24 776.98 58.14 779.84 60.02 782.62C84.42 823.91 110.69 862.41 139.83 899.96L187.64 899.96C152.96 856.79 121.06 810.76 92.90 762.95C89.26 757.49 83.29 754.38 77.00 754.38Z"/><path d="M1.85 327.54L1.85 376.35C7.47 372.58 10.33 365.08 8.45 357.57C6.57 348.19 4.69 337.82 1.85 327.54Z"/><path d="M19.60 447.39C17.48 447.39 15.28 447.77 13.11 448.56C8.45 449.53 4.69 453.29 1.85 457.93L1.85 475.81C24.36 544.26 52.52 610.93 86.30 675.64C128.56 756.35 178.25 831.41 235.53 899.96L285.23 899.96C221.42 826.75 166.09 745.08 120.08 657.85C87.28 594.04 59.12 528.36 37.51 460.80C34.54 452.62 27.52 447.39 19.60 447.39Z"/><path d="M1375.64 -3.74C1365.35 -3.74 1356.87 4.75 1355.97 15.03L1355.97 15.99C1355.97 25.38 1364.37 33.80 1374.72 34.77C1453.55 37.54 1529.53 55.42 1599.94 88.21L1599.94 46.93C1529.53 15.99 1453.55 -0.90 1375.64 -3.74Z"/><path d="M1356.45 72.05C1350.97 72.05 1345.46 72.13 1339.98 72.31C1329.69 72.31 1321.21 80.71 1321.21 91.08L1321.21 91.97C1321.21 102.33 1330.59 109.85 1340.94 109.85C1344.57 109.76 1348.17 109.73 1351.78 109.73C1438.25 109.73 1524.28 131.28 1599.94 173.65L1599.94 130.48C1525.01 92.56 1441.01 72.05 1356.45 72.05Z"/><path d="M1232.10 -3.74C1231.11 14.13 1230.22 31.02 1227.37 47.91C1225.49 58.19 1232.99 68.55 1243.36 69.46C1244.43 69.65 1245.48 69.74 1246.52 69.74C1255.51 69.74 1263.22 62.75 1264.89 53.54C1267.76 34.77 1269.64 15.99 1270.54 -3.74Z"/><path d="M1156.05 -3.74C1155.15 10.37 1154.17 23.52 1152.30 37.54C1151.39 46.03 1150.42 55.42 1150.42 63.82C1150.42 83.57 1153.27 99.48 1159.81 111.71C1179.72 148.80 1245.07 185.97 1333.13 185.97C1336.34 185.97 1339.56 185.91 1342.82 185.81C1347.15 185.69 1351.47 185.62 1355.78 185.62C1444.04 185.62 1529.22 212.62 1599.94 261.86L1599.94 216.81C1527.80 172.30 1443.90 148.06 1356.12 148.06C1351.38 148.06 1346.62 148.13 1341.86 148.27C1339.54 148.32 1337.25 148.35 1334.99 148.35C1257.20 148.35 1205.48 117.58 1193.59 94.82C1191.71 90.09 1187.95 81.69 1187.95 63.82C1187.95 57.30 1188.93 49.77 1189.83 42.27C1191.71 27.26 1193.59 12.25 1194.56 -3.74Z"/><path d="M1080.09 -3.74C1080.09 6.61 1079.10 15.99 1077.22 26.29C1075.34 38.53 1074.44 51.66 1074.44 63.82C1074.44 95.72 1080.98 123.87 1093.22 147.37C1129.67 216.64 1225.40 261.98 1334.96 261.98C1338.20 261.98 1341.44 261.93 1344.70 261.86C1348.21 261.76 1351.71 261.70 1355.21 261.70C1447.91 261.70 1534.82 297.95 1599.94 359.46L1599.94 309.68C1530.62 254.94 1443.54 223.26 1351.64 223.26C1349.02 223.26 1346.38 223.30 1343.72 223.35C1340.18 223.45 1336.66 223.49 1333.14 223.49C1238.12 223.49 1155.96 186.55 1127.00 129.52C1117.61 111.71 1111.99 90.09 1111.99 63.82C1111.99 53.54 1112.88 42.27 1114.76 31.92C1116.64 19.76 1117.61 8.49 1118.51 -3.74Z"/><path d="M395.06 -3.74C393.18 18.77 392.22 42.27 392.22 63.82C392.22 207.43 425.08 341.58 488.90 464.54C600.52 676.62 795.71 829.53 1032.18 899.96L1225.49 899.96C918.67 868.95 656.83 701.92 522.68 446.68C461.66 329.42 430.72 200.82 430.72 63.82C430.72 42.27 431.62 18.77 432.60 -3.74Z"/><path d="M1018.81 70.36C1018.25 70.36 1017.72 70.37 1017.17 70.43C1006.88 71.32 999.38 80.71 1000.28 91.08C1003.12 124.86 1011.54 155.77 1025.65 182.05C1075.70 277.71 1195.59 337.10 1333.89 337.10C1338.10 337.10 1342.32 337.04 1346.58 336.92C1349.12 336.85 1351.64 336.82 1354.17 336.82C1458.93 336.82 1551.34 394.31 1599.94 479.57L1599.94 413.87C1540.74 343.76 1452.43 299.26 1354.69 299.26C1351.67 299.26 1348.64 299.31 1345.60 299.40C1341.32 299.52 1337.08 299.57 1332.83 299.57C1208.81 299.57 1103.00 246.83 1059.43 165.16C1047.20 141.75 1040.66 116.37 1037.82 88.21C1036.96 78.48 1028.50 70.36 1018.81 70.36Z"/><path d="M1599.94 757.31C1588.69 776.98 1575.54 796.73 1561.43 815.51C1521.11 859.57 1467.59 888.69 1409.42 899.96L1516.38 899.96C1543.64 884.95 1568.04 865.19 1589.58 841.78L1592.43 838.92L1592.43 838.02C1595.21 835.17 1598.07 832.40 1599.94 829.53L1599.94 757.31Z"/><path d="M1004.04 -3.74C1004.04 2.87 1003.12 8.49 1002.16 15.03C1001.26 25.38 1007.78 34.77 1018.15 36.65C1019.22 36.84 1020.27 36.94 1021.31 36.94C1030.30 36.94 1038.01 29.93 1039.70 20.65C1040.66 12.25 1041.56 4.75 1042.54 -3.74Z"/><path d="M471.02 -3.74C469.16 18.77 468.25 41.30 468.25 63.82C468.25 195.20 498.28 317.19 556.46 428.88C698.96 701.09 994.38 867.45 1332.78 867.45C1342.03 867.45 1351.31 867.31 1360.61 867.07C1494.85 864.30 1599.94 755.45 1599.94 621.21L1599.94 614.69C1596.24 481.84 1487.36 375.26 1354.36 375.26C1352.07 375.26 1349.78 375.29 1347.48 375.36C1343.36 375.47 1339.25 375.52 1335.16 375.52C1182.58 375.52 1048.55 307.75 992.77 199.92C971.22 160.52 960.87 114.49 960.87 63.82C960.87 46.03 961.84 27.26 964.62 9.39C965.60 4.75 965.60 0.98 966.50 -3.74L928.06 -3.74C928.06 -0.90 928.06 1.88 927.09 3.76C924.31 24.41 923.33 44.15 923.33 63.82C923.33 120.13 934.60 172.68 958.99 217.71C1021.89 337.10 1167.87 413.11 1333.49 413.11C1338.46 413.11 1343.44 413.04 1348.45 412.90C1350.17 412.85 1351.88 412.83 1353.61 412.83C1466.68 412.83 1559.60 502.81 1562.41 615.58L1562.41 621.21C1562.41 734.80 1473.22 826.75 1359.71 829.53C1351.22 829.76 1342.75 829.86 1334.30 829.86C1009.83 829.86 726.48 671.71 590.24 411.02C533.94 305.92 505.79 188.66 505.79 63.82C505.79 41.30 506.69 18.77 508.57 -3.74Z"/><path d="M547.07 -3.74C545.21 18.77 544.23 42.27 544.23 63.82C544.23 183.03 570.50 293.76 623.05 393.24C651.21 447.65 686.85 497.35 729.12 542.40C732.48 546.76 737.37 548.89 742.34 548.89C747.01 548.89 751.76 547.01 755.40 543.37C762.90 536.76 763.81 524.60 756.29 517.09C716.89 473.93 683.11 427.02 656.83 376.35C607.13 281.53 581.77 176.42 581.77 63.82C581.77 42.27 582.73 18.77 584.61 -3.74Z"/><path d="M852.01 -3.74C849.23 18.77 847.37 41.30 847.37 63.82C847.37 133.26 862.38 196.16 891.43 252.47C967.46 398.03 1140.85 489.11 1335.78 489.11C1340.61 489.11 1345.48 489.06 1350.33 488.95C1351.48 488.92 1352.62 488.90 1353.78 488.90C1425.43 488.90 1484.52 546.39 1486.36 617.47L1486.36 621.21C1486.36 693.51 1430.05 751.69 1357.83 753.57C1349.41 753.79 1340.99 753.91 1332.61 753.91C1137.57 753.91 955.97 691.34 819.21 576.18C815.50 573.32 811.09 571.88 806.74 571.88C801.15 571.88 795.68 574.25 791.95 579.03C785.43 586.53 786.33 598.69 794.82 605.30C938.13 726.12 1129.15 792.34 1333.70 792.34C1342.03 792.34 1350.36 792.21 1358.75 792.01C1451.69 789.23 1524.87 714.15 1524.87 621.21L1524.87 616.57C1522.06 523.89 1445.13 450.39 1352.85 450.39C1351.67 450.39 1350.52 450.41 1349.36 450.43C1343.53 450.60 1337.73 450.70 1331.97 450.70C1152.39 450.70 994.31 366.49 925.21 235.58C898.94 183.93 884.89 126.74 884.89 63.82C884.89 42.27 886.77 20.65 889.55 -1.86C889.55 -1.86 890.53 -2.76 890.53 -3.74Z"/><path d="M623.05 -3.74C621.17 18.77 620.27 42.27 620.27 63.82C620.27 169.90 643.69 269.36 690.61 358.47C806.72 580.58 1051.83 716.32 1334.09 716.32C1341.65 716.32 1349.24 716.24 1356.87 716.03C1408.52 715.06 1449.81 670.98 1448.82 618.43C1446.98 567.40 1404.78 526.46 1353.05 526.46C1352.45 526.46 1351.85 526.46 1351.22 526.48C1345.50 526.63 1339.79 526.70 1334.08 526.70C1126.13 526.70 940.82 427.36 858.62 270.26C806.07 170.80 804.20 67.58 813.57 -3.74L775.06 -3.74C766.66 73.20 768.54 182.05 824.84 288.13C913.58 457.40 1113.06 565.12 1335.27 565.12C1340.91 565.12 1346.55 565.05 1352.21 564.91C1352.78 564.90 1353.35 564.90 1353.92 564.90C1385.04 564.90 1410.38 588.96 1410.38 619.35C1411.30 651.25 1386.89 677.52 1354.99 678.50C1348.29 678.66 1341.62 678.73 1334.96 678.73C1067.42 678.73 834.27 551.27 724.39 340.68C680.33 257.13 657.82 164.26 657.82 63.82C657.82 42.27 658.71 18.77 661.56 -3.74Z"/><path d="M1171.02 584.91C1162.66 584.91 1155.62 590.93 1153.27 599.68L1153.27 603.42C1153.27 612.81 1158.90 620.31 1167.31 622.19C1220.76 634.49 1275.61 640.34 1330.68 640.34C1338.48 640.34 1346.27 640.22 1354.09 639.98C1365.35 639.98 1372.86 631.58 1372.86 621.21C1372.86 609.96 1364.37 602.46 1353.11 602.46C1346.29 602.66 1339.46 602.77 1332.63 602.77C1279.44 602.77 1226.49 596.40 1175.79 585.57C1174.18 585.12 1172.58 584.91 1171.02 584.91Z"/><path d="M699.10 -3.74C697.22 16.91 695.34 40.41 695.34 63.82C695.34 140.76 710.35 232.74 757.28 322.81C819.21 442.03 928.95 536.76 1064.09 590.29C1066.28 591.17 1068.58 591.59 1070.86 591.59C1078.33 591.59 1085.61 587.12 1088.49 579.92C1092.23 569.64 1087.59 559.29 1078.21 554.63C950.59 504.86 849.23 415.75 791.06 305.92C731.90 192.42 728.15 78.83 737.54 -3.74Z"/></g></svg>